<?xml version="1.0" encoding="UTF-8"?>
<!DOCTYPE svg PUBLIC "-//W3C//DTD SVG 1.1//EN" "http://www.w3.org/Graphics/SVG/1.1/DTD/svg11.dtd">
<svg xmlns="http://www.w3.org/2000/svg" version="1.1" width="1125px" height="1128px" style="shape-rendering:geometricPrecision; text-rendering:geometricPrecision; image-rendering:optimizeQuality; fill-rule:evenodd; clip-rule:evenodd" xmlns:xlink="http://www.w3.org/1999/xlink">
<g><path style="opacity:1" fill="#b95b55" d="M 535.5,240.5 C 653.462,234.604 750.628,275.938 827,364.5C 893.483,448.672 916.816,544.338 897,651.5C 870.265,764.189 804.765,845.023 700.5,894C 611.558,930.703 522.225,931.703 432.5,897C 346.393,859.893 284.56,798.393 247,712.5C 213.011,624.929 213.011,537.262 247,449.5C 286.401,359.432 351.901,296.599 443.5,261C 473.372,250.029 504.038,243.195 535.5,240.5 Z"/></g>
<g><path style="opacity:1" fill="#d79b8e" d="M 594.5,260.5 C 573.165,259.18 551.832,259.18 530.5,260.5C 530.167,260.5 529.833,260.5 529.5,260.5C 530.609,259.71 531.942,259.21 533.5,259C 552.833,258.333 572.167,258.333 591.5,259C 592.737,259.232 593.737,259.732 594.5,260.5 Z"/></g>
<g><path style="opacity:0.999" fill="#f4f0e5" d="M 594.5,260.5 C 595.5,260.5 596.5,260.5 597.5,260.5C 597.918,261.222 598.584,261.722 599.5,262C 604.171,262.538 608.838,263.038 613.5,263.5C 644.709,267.907 674.376,276.907 702.5,290.5C 704.033,292.245 706.033,293.245 708.5,293.5C 773.477,327.315 822.311,377.315 855,443.5C 858.631,451.72 861.798,460.053 864.5,468.5C 864.759,471.272 865.759,473.605 867.5,475.5C 868.301,479.235 869.301,482.901 870.5,486.5C 870.928,489.785 871.928,492.785 873.5,495.5C 876.552,504.867 878.552,514.534 879.5,524.5C 879.999,529.492 880.499,534.492 881,539.5C 881.278,540.416 881.778,541.082 882.5,541.5C 885.609,572.248 884.943,602.915 880.5,633.5C 878.053,638.438 877.053,643.772 877.5,649.5C 876.85,651.435 876.517,653.435 876.5,655.5C 875.087,658.219 874.42,661.219 874.5,664.5C 868.269,685.861 860.269,706.528 850.5,726.5C 848.229,728.612 846.896,731.279 846.5,734.5C 796.508,821.851 722.174,876.018 623.5,897C 548.753,910.708 477.753,900.375 410.5,866C 396.991,858.415 383.991,850.082 371.5,841C 362.201,834.191 353.535,826.691 345.5,818.5C 342.437,814.434 338.771,811.101 334.5,808.5C 328.504,803.337 323.004,797.67 318,791.5C 300.898,770.289 286.064,747.623 273.5,723.5C 273.065,720.843 272.065,718.509 270.5,716.5C 270.104,713.279 268.771,710.612 266.5,708.5C 264.29,703.2 262.29,697.866 260.5,692.5C 257.036,681.606 253.87,670.606 251,659.5C 250.617,658.944 250.117,658.611 249.5,658.5C 249.58,655.219 248.913,652.219 247.5,649.5C 241.695,615.655 240.028,581.655 242.5,547.5C 244.145,542.766 244.811,537.766 244.5,532.5C 245.268,531.737 245.768,530.737 246,529.5C 246.498,526.183 246.665,522.85 246.5,519.5C 246.5,518.833 246.5,518.167 246.5,517.5C 248.463,512.449 249.796,507.116 250.5,501.5C 260.58,459.34 278.747,421.007 305,386.5C 314.654,374.016 325.154,362.349 336.5,351.5C 340.436,349.234 343.769,346.234 346.5,342.5C 370.963,319.428 398.63,301.095 429.5,287.5C 433.853,287.154 437.52,285.487 440.5,282.5C 443.254,281.054 446.254,280.054 449.5,279.5C 454.554,278.316 459.554,276.816 464.5,275C 465.056,274.617 465.389,274.117 465.5,273.5C 466.492,273.672 467.158,273.338 467.5,272.5C 470.877,272.932 473.877,272.265 476.5,270.5C 476.833,270.5 477.167,270.5 477.5,270.5C 483.869,269.744 489.869,268.077 495.5,265.5C 497.379,264.659 499.379,264.325 501.5,264.5C 504.807,263.949 508.14,263.616 511.5,263.5C 518.068,263.147 524.402,262.147 530.5,260.5C 551.832,259.18 573.165,259.18 594.5,260.5 Z"/></g>
<g><path style="opacity:1" fill="#e5c4b5" d="M 597.5,260.5 C 603.105,260.779 608.438,261.779 613.5,263.5C 608.838,263.038 604.171,262.538 599.5,262C 598.584,261.722 597.918,261.222 597.5,260.5 Z"/></g>
<g><path style="opacity:1" fill="#cf867b" d="M 515.5,261.5 C 514.167,262.167 512.833,262.833 511.5,263.5C 508.14,263.616 504.807,263.949 501.5,264.5C 505.862,262.656 510.529,261.656 515.5,261.5 Z"/></g>
<g><path style="opacity:1" fill="#e7c9ba" d="M 529.5,260.5 C 529.833,260.5 530.167,260.5 530.5,260.5C 524.402,262.147 518.068,263.147 511.5,263.5C 512.833,262.833 514.167,262.167 515.5,261.5C 520.167,261.167 524.833,260.833 529.5,260.5 Z"/></g>
<g><path style="opacity:1" fill="#deb0a2" d="M 495.5,265.5 C 489.869,268.077 483.869,269.744 477.5,270.5C 481.352,268.943 485.352,267.443 489.5,266C 491.473,265.505 493.473,265.338 495.5,265.5 Z"/></g>
<g><path style="opacity:1" fill="#dba599" d="M 476.5,270.5 C 473.877,272.265 470.877,272.932 467.5,272.5C 470.273,271.343 473.273,270.676 476.5,270.5 Z"/></g>
<g><path style="opacity:1" fill="#b85a54" d="M 588.5,273.5 C 593.269,274.889 598.269,275.556 603.5,275.5C 607.119,276.244 610.785,276.577 614.5,276.5C 614.918,277.222 615.584,277.722 616.5,278C 620.17,278.548 623.837,279.048 627.5,279.5C 634.342,280.333 641.008,282 647.5,284.5C 652.255,286.613 657.255,288.279 662.5,289.5C 663.959,289.433 665.292,289.766 666.5,290.5C 669.54,292.346 672.873,293.679 676.5,294.5C 679.172,295.501 681.838,296.501 684.5,297.5C 686.033,299.245 688.033,300.245 690.5,300.5C 699.787,305.144 709.121,309.81 718.5,314.5C 720.033,316.245 722.033,317.245 724.5,317.5C 742.647,329.307 759.647,342.641 775.5,357.5C 776.585,359.587 778.251,360.92 780.5,361.5C 801.297,382.729 818.964,406.396 833.5,432.5C 833.755,434.967 834.755,436.967 836.5,438.5C 837.338,438.842 837.672,439.508 837.5,440.5C 837.755,442.967 838.755,444.967 840.5,446.5C 840.755,448.967 841.755,450.967 843.5,452.5C 850.87,468.606 856.87,485.273 861.5,502.5C 861.862,507.752 862.862,512.752 864.5,517.5C 871.566,548.691 873.399,580.358 870,612.5C 868.36,621.093 867.193,629.76 866.5,638.5C 865.076,640.515 864.41,642.848 864.5,645.5C 862.833,652.169 861.166,658.836 859.5,665.5C 858.076,667.515 857.41,669.848 857.5,672.5C 827.465,764.542 767.798,829.542 678.5,867.5C 673.856,868.599 669.522,870.266 665.5,872.5C 663.167,873.167 660.833,873.833 658.5,874.5C 655.254,875.054 652.254,876.054 649.5,877.5C 643.415,878.522 637.415,879.855 631.5,881.5C 627.015,882.34 622.681,883.34 618.5,884.5C 610.522,885.664 602.522,886.664 594.5,887.5C 588.916,887.255 583.583,887.922 578.5,889.5C 566.5,889.5 554.5,889.5 542.5,889.5C 538.764,888.011 534.764,887.344 530.5,887.5C 525.819,887.331 521.152,886.998 516.5,886.5C 516.082,885.778 515.416,885.278 514.5,885C 510.49,884.499 506.49,883.999 502.5,883.5C 490.254,880.99 478.254,877.99 466.5,874.5C 464.064,873.129 461.397,872.129 458.5,871.5C 423.695,859.602 392.362,841.769 364.5,818C 357.629,811.625 350.629,805.458 343.5,799.5C 342.243,796.573 340.243,794.239 337.5,792.5C 303.646,755.466 279.646,712.8 265.5,664.5C 265.741,662.102 265.074,660.102 263.5,658.5C 263.309,654.738 262.642,651.071 261.5,647.5C 261.59,644.848 260.924,642.515 259.5,640.5C 259.5,639.5 259.5,638.5 259.5,637.5C 259.435,634.572 258.768,631.905 257.5,629.5C 257.552,627.097 257.219,624.764 256.5,622.5C 256.224,614.319 255.557,606.319 254.5,598.5C 254.5,596.5 254.5,594.5 254.5,592.5C 254.235,576.447 254.902,560.447 256.5,544.5C 256.312,538.714 256.978,533.047 258.5,527.5C 260.26,523.453 261.26,519.12 261.5,514.5C 262.696,507.383 264.363,500.383 266.5,493.5C 268.68,489.115 270.347,484.448 271.5,479.5C 298.162,402.825 347.496,345.492 419.5,307.5C 421.967,307.245 423.967,306.245 425.5,304.5C 430.301,301.718 435.301,299.385 440.5,297.5C 444.332,296.557 447.999,295.223 451.5,293.5C 471.636,285.213 492.636,279.546 514.5,276.5C 522.424,276.453 530.09,275.453 537.5,273.5C 554.489,272.235 571.489,272.235 588.5,273.5 Z"/></g>
<g><path style="opacity:1" fill="#d79c8f" d="M 588.5,273.5 C 593.731,273.444 598.731,274.111 603.5,275.5C 598.269,275.556 593.269,274.889 588.5,273.5 Z"/></g>
<g><path style="opacity:1" fill="#e6c6b8" d="M 465.5,273.5 C 465.389,274.117 465.056,274.617 464.5,275C 459.554,276.816 454.554,278.316 449.5,279.5C 454.536,276.929 459.87,274.929 465.5,273.5 Z"/></g>
<g><path style="opacity:1" fill="#d18b80" d="M 537.5,273.5 C 530.09,275.453 522.424,276.453 514.5,276.5C 521.927,274.709 529.593,273.709 537.5,273.5 Z"/></g>
<g><path style="opacity:1" fill="#deafa2" d="M 614.5,276.5 C 618.163,276.952 621.83,277.452 625.5,278C 626.416,278.278 627.082,278.778 627.5,279.5C 623.837,279.048 620.17,278.548 616.5,278C 615.584,277.722 614.918,277.222 614.5,276.5 Z"/></g>
<g><path style="opacity:1" fill="#e0b3a5" d="M 440.5,282.5 C 437.52,285.487 433.853,287.154 429.5,287.5C 432.849,285.267 436.515,283.6 440.5,282.5 Z"/></g>
<g><path style="opacity:1" fill="#daa396" d="M 647.5,284.5 C 651.222,285.017 654.888,285.85 658.5,287C 660.32,287.2 661.653,288.034 662.5,289.5C 657.255,288.279 652.255,286.613 647.5,284.5 Z"/></g>
<g><path style="opacity:1" fill="#e0b4a6" d="M 666.5,290.5 C 670.475,290.486 673.808,291.819 676.5,294.5C 672.873,293.679 669.54,292.346 666.5,290.5 Z"/></g>
<g><path style="opacity:1" fill="#d89b90" d="M 702.5,290.5 C 704.967,290.755 706.967,291.755 708.5,293.5C 706.033,293.245 704.033,292.245 702.5,290.5 Z"/></g>
<g><path style="opacity:1" fill="#d9a194" d="M 451.5,293.5 C 447.999,295.223 444.332,296.557 440.5,297.5C 443.626,295.01 447.292,293.677 451.5,293.5 Z"/></g>
<g><path style="opacity:1" fill="#d89e91" d="M 684.5,297.5 C 686.967,297.755 688.967,298.755 690.5,300.5C 688.033,300.245 686.033,299.245 684.5,297.5 Z"/></g>
<g><path style="opacity:1" fill="#deada0" d="M 425.5,304.5 C 423.967,306.245 421.967,307.245 419.5,307.5C 421.033,305.755 423.033,304.755 425.5,304.5 Z"/></g>
<g><path style="opacity:1" fill="#e0b7a9" d="M 718.5,314.5 C 720.967,314.755 722.967,315.755 724.5,317.5C 722.033,317.245 720.033,316.245 718.5,314.5 Z"/></g>
<g><path style="opacity:1" fill="#e8c9ba" d="M 346.5,342.5 C 343.769,346.234 340.436,349.234 336.5,351.5C 339.231,347.766 342.564,344.766 346.5,342.5 Z"/></g>
<g><path style="opacity:1" fill="#e0b4a6" d="M 775.5,357.5 C 777.749,358.08 779.415,359.413 780.5,361.5C 778.251,360.92 776.585,359.587 775.5,357.5 Z"/></g>
<g><path style="opacity:1" fill="#f4f2e4" d="M 401.5,785.5 C 401.964,782.758 402.297,780.258 402.5,778C 402.056,776.238 401.556,776.405 401,778.5C 400.5,645.834 400.333,513.167 400.5,380.5C 404.101,363.735 414.434,353.902 431.5,351C 506.167,350.333 580.833,350.333 655.5,351C 673.37,354.203 683.87,364.703 687,382.5C 687.167,405.84 687.667,429.174 688.5,452.5C 749.786,469.885 782.786,510.385 787.5,574C 784.567,618.189 764.901,652.522 728.5,677C 715.616,683.482 701.949,686.982 687.5,687.5C 687.667,717.835 687.5,748.168 687,778.5C 684.536,794.292 675.702,804.459 660.5,809C 582.167,809.667 503.833,809.667 425.5,809C 413.017,805.684 405.017,797.85 401.5,785.5 Z"/></g>
<g><path style="opacity:1" fill="#b85a54" d="M 545.5,595.5 C 533.292,598.021 523.125,604.021 515,613.5C 513.223,616.72 511.723,620.053 510.5,623.5C 509.735,622.388 508.735,621.721 507.5,621.5C 506.075,620.078 505.075,618.411 504.5,616.5C 504.238,615.022 504.571,613.689 505.5,612.5C 508.287,611.606 510.954,610.44 513.5,609C 517.822,604.736 522.322,600.569 527,596.5C 530.356,589.231 531.356,581.564 530,573.5C 529,572.167 528,572.167 527,573.5C 526.163,577.514 525.329,581.514 524.5,585.5C 518.854,589.683 512.521,592.85 505.5,595C 501.897,597.098 499.23,599.932 497.5,603.5C 495.638,600.552 493.971,597.552 492.5,594.5C 492.34,592.801 492.506,591.134 493,589.5C 502.41,582.421 510.076,573.754 516,563.5C 516.498,560.518 516.665,557.518 516.5,554.5C 515.167,554.5 513.833,554.5 512.5,554.5C 512.649,555.552 512.483,556.552 512,557.5C 506.482,562.344 500.649,566.844 494.5,571C 492.57,573.258 491.07,575.758 490,578.5C 489.329,579.252 488.496,579.586 487.5,579.5C 486.766,578.292 486.433,576.959 486.5,575.5C 486.318,573.409 486.652,571.409 487.5,569.5C 495.966,564.891 501.466,557.891 504,548.5C 505.353,541.208 505.686,533.875 505,526.5C 504.125,523.785 502.292,522.452 499.5,522.5C 499.534,528.296 498.701,533.963 497,539.5C 493.385,545.116 489.385,550.45 485,555.5C 484.564,558.398 483.397,560.731 481.5,562.5C 480.241,553.842 478.908,545.175 477.5,536.5C 472.699,522.705 463.032,514.705 448.5,512.5C 448.943,515.624 450.61,517.957 453.5,519.5C 457.936,525.384 460.436,532.051 461,539.5C 464.484,549.126 470.318,556.793 478.5,562.5C 464.776,563.481 452.776,559.314 442.5,550C 441.552,549.517 440.552,549.351 439.5,549.5C 439.502,553.511 440.668,557.178 443,560.5C 448.343,567.182 454.843,572.349 462.5,576C 465.372,576.315 468.205,576.815 471,577.5C 472.728,577.101 474.228,576.434 475.5,575.5C 477.262,575.643 478.929,575.309 480.5,574.5C 481.835,576.201 483.168,577.868 484.5,579.5C 484.5,579.833 484.5,580.167 484.5,580.5C 484.719,581.675 484.386,582.675 483.5,583.5C 477.651,581.534 471.651,581.034 465.5,582C 457.813,585.195 450.479,589.028 443.5,593.5C 442.417,594.365 442.251,595.365 443,596.5C 448.719,598.92 454.719,599.92 461,599.5C 470.114,599.929 478.614,597.929 486.5,593.5C 488.073,593.752 489.406,594.418 490.5,595.5C 490.733,597.062 491.4,598.395 492.5,599.5C 492.357,601.262 492.691,602.929 493.5,604.5C 486.773,606.689 480.106,609.189 473.5,612C 466.152,612.521 458.819,612.355 451.5,611.5C 451.423,614.012 452.423,616.012 454.5,617.5C 462.866,623.426 472.199,625.926 482.5,625C 476.396,630.59 469.396,634.757 461.5,637.5C 461.709,638.086 462.043,638.586 462.5,639C 472.076,639.774 481.576,639.274 491,637.5C 498.34,639.395 505.173,638.395 511.5,634.5C 514.335,638.164 516.668,642.164 518.5,646.5C 518.631,647.239 518.464,647.906 518,648.5C 502.919,645.623 491.419,650.79 483.5,664C 481.305,666.188 478.805,668.021 476,669.5C 475.508,670.549 475.674,671.549 476.5,672.5C 482.15,676.173 488.15,677.006 494.5,675C 502.286,668.512 510.953,663.845 520.5,661C 522.088,658.521 524.088,658.021 526.5,659.5C 528.527,660.861 530.194,662.527 531.5,664.5C 532.5,666.5 533.5,668.5 534.5,670.5C 535.038,672.117 535.371,673.784 535.5,675.5C 529.913,675.44 524.247,676.273 518.5,678C 509.487,683.108 501.154,689.274 493.5,696.5C 511.625,699.901 527.625,695.568 541.5,683.5C 542.518,684.193 543.518,684.859 544.5,685.5C 546.55,687.237 548.383,689.237 550,691.5C 557.227,704.743 566.061,716.91 576.5,728C 578.769,729.558 581.102,729.724 583.5,728.5C 580.542,726.044 577.709,723.378 575,720.5C 565.824,707.471 556.657,694.471 547.5,681.5C 547.461,680.417 547.127,679.417 546.5,678.5C 558.837,675.615 567.004,668.282 571,656.5C 571.986,655.829 573.153,655.829 574.5,656.5C 597.855,674.794 624.522,684.96 654.5,687C 663.827,687.5 673.161,687.666 682.5,687.5C 682.667,719.168 682.5,750.835 682,782.5C 678.061,794.773 669.894,802.606 657.5,806C 581.167,806.667 504.833,806.667 428.5,806C 414.468,802.633 406.301,793.8 404,779.5C 403.333,647.167 403.333,514.833 404,382.5C 406.022,370.144 412.855,361.644 424.5,357C 463.963,355.848 503.463,355.348 543,355.5C 582.537,355.348 622.037,355.848 661.5,357C 672.98,360.811 679.813,368.644 682,380.5C 682.5,403.831 682.667,427.164 682.5,450.5C 673.071,450.1 663.737,448.934 654.5,447C 654.046,430.546 645.713,420.879 629.5,418C 570.833,417.333 512.167,417.333 453.5,418C 439.593,419.867 431.427,427.7 429,441.5C 428.017,534.193 428.351,626.859 430,719.5C 433.475,729.311 440.308,735.144 450.5,737C 477.5,737.333 504.5,737.667 531.5,738C 536.344,737.965 540.677,739.298 544.5,742C 538.171,744.248 532.337,747.415 527,751.5C 518.051,762.448 518.884,772.614 529.5,782C 548.277,785.281 559.61,777.615 563.5,759C 563.005,754.172 561.671,749.672 559.5,745.5C 583.482,744.036 607.482,742.869 631.5,742C 645.699,738.602 652.699,729.602 652.5,715C 652.333,712.167 652.167,709.333 652,706.5C 651,705.167 650,705.167 649,706.5C 650.622,717.193 647.789,726.359 640.5,734C 637.874,736.146 634.874,737.479 631.5,738C 606.642,738.745 581.808,739.911 557,741.5C 549.834,738.222 542.334,735.722 534.5,734C 506.5,733.667 478.5,733.333 450.5,733C 443.255,731.423 438.089,727.256 435,720.5C 433.343,626.543 433.01,532.543 434,438.5C 436.5,430.667 441.667,425.5 449.5,423C 510.5,422.333 571.5,422.333 632.5,423C 644.456,426.73 650.122,434.897 649.5,447.5C 627.915,448.635 609.248,456.469 593.5,471C 560.165,505.606 544.165,547.106 545.5,595.5 Z"/></g>
<g><path style="opacity:1" fill="#f6f6e8" d="M 506.5,385.5 C 531.169,385.333 555.836,385.5 580.5,386C 581.833,387 581.833,388 580.5,389C 555.833,389.667 531.167,389.667 506.5,389C 505.316,387.855 505.316,386.688 506.5,385.5 Z"/></g>
<g><path style="opacity:1" fill="#daa597" d="M 833.5,432.5 C 835.245,434.033 836.245,436.033 836.5,438.5C 834.755,436.967 833.755,434.967 833.5,432.5 Z"/></g>
<g><path style="opacity:1" fill="#d89d90" d="M 837.5,440.5 C 839.245,442.033 840.245,444.033 840.5,446.5C 838.755,444.967 837.755,442.967 837.5,440.5 Z"/></g>
<g><path style="opacity:1" fill="#daa699" d="M 840.5,446.5 C 842.245,448.033 843.245,450.033 843.5,452.5C 841.755,450.967 840.755,448.967 840.5,446.5 Z"/></g>
<g><path style="opacity:1" fill="#b85a54" d="M 576.5,650.5 C 576.489,648.983 575.823,647.816 574.5,647C 576.053,645.903 577.386,644.57 578.5,643C 575.376,642.697 572.376,643.197 569.5,644.5C 555.95,627.36 549.284,607.694 549.5,585.5C 550.92,540.177 567.92,502.011 600.5,471C 625.443,452.148 653.109,447.148 683.5,456C 739.54,469.7 772.373,504.867 782,561.5C 784.18,605.287 768.347,640.787 734.5,668C 716.468,679.744 696.635,684.911 675,683.5C 644.412,684.395 615.912,677.228 589.5,662C 584.718,658.619 580.385,654.786 576.5,650.5 Z"/></g>
<g><path style="opacity:1" fill="#deb1a3" d="M 864.5,468.5 C 866.241,470.395 867.241,472.728 867.5,475.5C 865.759,473.605 864.759,471.272 864.5,468.5 Z"/></g>
<g><path style="opacity:1" fill="#deaea0" d="M 271.5,479.5 C 270.347,484.448 268.68,489.115 266.5,493.5C 267.009,488.297 268.676,483.63 271.5,479.5 Z"/></g>
<g><path style="opacity:1" fill="#deafa1" d="M 870.5,486.5 C 872.472,489.084 873.472,492.084 873.5,495.5C 871.928,492.785 870.928,489.785 870.5,486.5 Z"/></g>
<g><path style="opacity:1" fill="#e0b6a7" d="M 250.5,501.5 C 249.796,507.116 248.463,512.449 246.5,517.5C 246.777,511.777 248.111,506.443 250.5,501.5 Z"/></g>
<g><path style="opacity:1" fill="#f4f3e5" d="M 624.5,514.5 C 632.14,513.817 639.473,514.984 646.5,518C 652.564,520.906 658.231,524.406 663.5,528.5C 682.351,514.946 701.684,514.112 721.5,526C 737.774,541.873 739.941,559.707 728,579.5C 715.565,597.601 700.731,613.435 683.5,627C 676.893,631.386 669.726,634.552 662,636.5C 626.107,623.061 605.107,597.394 599,559.5C 597.094,544.6 601.261,531.767 611.5,521C 615.771,518.533 620.104,516.366 624.5,514.5 Z"/></g>
<g><path style="opacity:1" fill="#d7998c" d="M 861.5,502.5 C 863.322,507.205 864.322,512.205 864.5,517.5C 862.862,512.752 861.862,507.752 861.5,502.5 Z"/></g>
<g><path style="opacity:1" fill="#b85a54" d="M 624.5,519.5 C 637.15,518.661 648.317,522.328 658,530.5C 656.676,535.448 654.009,539.782 650,543.5C 644.165,553.264 644.165,562.931 650,572.5C 661.218,580.563 670.218,578.563 677,566.5C 679,560.833 679,555.167 677,549.5C 674.458,543.576 671.291,538.076 667.5,533C 667.759,531.739 668.426,530.739 669.5,530C 688.014,517.794 705.681,518.794 722.5,533C 730.597,542.149 733.097,552.649 730,564.5C 716.763,592.071 696.93,613.571 670.5,629C 667.28,630.525 663.947,631.192 660.5,631C 622.315,614.814 603.482,585.98 604,544.5C 606.006,532.012 612.839,523.679 624.5,519.5 Z"/></g>
<g><path style="opacity:1" fill="#d79a8d" d="M 261.5,514.5 C 261.26,519.12 260.26,523.453 258.5,527.5C 258.74,522.88 259.74,518.547 261.5,514.5 Z"/></g>
<g><path style="opacity:1" fill="#e3bfb0" d="M 246.5,519.5 C 246.665,522.85 246.498,526.183 246,529.5C 245.768,530.737 245.268,531.737 244.5,532.5C 244.77,527.972 245.437,523.639 246.5,519.5 Z"/></g>
<g><path style="opacity:1" fill="#b85a54" d="M 661.5,536.5 C 668.927,541.499 672.927,548.666 673.5,558C 673.055,568.454 667.721,573.12 657.5,572C 652.408,568.983 650.074,564.483 650.5,558.5C 651.503,549.827 655.17,542.493 661.5,536.5 Z"/></g>
<g><path style="opacity:1" fill="#dba99a" d="M 879.5,524.5 C 881.224,529.908 882.224,535.575 882.5,541.5C 881.778,541.082 881.278,540.416 881,539.5C 880.499,534.492 879.999,529.492 879.5,524.5 Z"/></g>
<g><path style="opacity:1" fill="#deafa2" d="M 244.5,532.5 C 244.811,537.766 244.145,542.766 242.5,547.5C 242.189,542.234 242.855,537.234 244.5,532.5 Z"/></g>
<g><path style="opacity:1" fill="#c37064" d="M 481.5,562.5 C 480.883,562.389 480.383,562.056 480,561.5C 479.333,563.833 479.333,566.167 480,568.5C 481.718,572.06 483.218,575.727 484.5,579.5C 483.168,577.868 481.835,576.201 480.5,574.5C 478.929,575.309 477.262,575.643 475.5,575.5C 474.228,576.434 472.728,577.101 471,577.5C 468.205,576.815 465.372,576.315 462.5,576C 454.843,572.349 448.343,567.182 443,560.5C 440.668,557.178 439.502,553.511 439.5,549.5C 440.552,549.351 441.552,549.517 442.5,550C 452.776,559.314 464.776,563.481 478.5,562.5C 470.318,556.793 464.484,549.126 461,539.5C 460.436,532.051 457.936,525.384 453.5,519.5C 450.61,517.957 448.943,515.624 448.5,512.5C 463.032,514.705 472.699,522.705 477.5,536.5C 478.908,545.175 480.241,553.842 481.5,562.5 Z"/></g>
<g><path style="opacity:1" fill="#b85a51" d="M 455.5,518.5 C 457.435,517.291 459.435,517.458 461.5,519C 465.306,522.806 469.14,526.64 473,530.5C 475.912,538.918 477.078,547.584 476.5,556.5C 475.448,556.649 474.448,556.483 473.5,556C 471.511,553.044 469.344,550.211 467,547.5C 463.791,539.733 461.124,531.733 459,523.5C 457.374,522.045 456.208,520.378 455.5,518.5 Z"/></g>
<g><path style="opacity:1" fill="#c16a60" d="M 486.5,575.5 C 484.959,571.18 483.293,566.847 481.5,562.5C 483.397,560.731 484.564,558.398 485,555.5C 489.385,550.45 493.385,545.116 497,539.5C 498.701,533.963 499.534,528.296 499.5,522.5C 502.292,522.452 504.125,523.785 505,526.5C 505.686,533.875 505.353,541.208 504,548.5C 501.466,557.891 495.966,564.891 487.5,569.5C 486.652,571.409 486.318,573.409 486.5,575.5 Z"/></g>
<g><path style="opacity:1" fill="#b85951" d="M 501.5,531.5 C 502.239,531.369 502.906,531.536 503.5,532C 502.448,539.677 500.781,547.177 498.5,554.5C 495.335,560.338 490.668,564.338 484.5,566.5C 485.998,558.502 489.831,551.835 496,546.5C 497.307,543.592 498.807,540.759 500.5,538C 501.287,535.901 501.62,533.734 501.5,531.5 Z"/></g>
<g><path style="opacity:1" fill="#d9a092" d="M 256.5,544.5 C 254.902,560.447 254.235,576.447 254.5,592.5C 252.751,576.392 253.417,560.392 256.5,544.5 Z"/></g>
<g><path style="opacity:1" fill="#c36f63" d="M 492.5,594.5 C 491.388,592.401 490.721,590.067 490.5,587.5C 492.138,586.841 493.805,586.174 495.5,585.5C 501.228,579.942 506.394,573.942 511,567.5C 511.346,565.782 511.846,564.115 512.5,562.5C 502.853,565.625 495.686,571.958 491,581.5C 490.506,583.134 490.34,584.801 490.5,586.5C 489.088,584.396 488.088,582.063 487.5,579.5C 488.496,579.586 489.329,579.252 490,578.5C 491.07,575.758 492.57,573.258 494.5,571C 500.649,566.844 506.482,562.344 512,557.5C 512.483,556.552 512.649,555.552 512.5,554.5C 513.833,554.5 515.167,554.5 516.5,554.5C 516.665,557.518 516.498,560.518 516,563.5C 510.076,573.754 502.41,582.421 493,589.5C 492.506,591.134 492.34,592.801 492.5,594.5 Z"/></g>
<g><path style="opacity:1" fill="#b85a51" d="M 475.5,575.5 C 467.928,576.716 461.261,574.883 455.5,570C 451.299,566.466 447.466,562.633 444,558.5C 443.009,556.553 442.675,554.553 443,552.5C 447.196,556.686 452.029,559.853 457.5,562C 464.463,562.525 471.13,564.192 477.5,567C 478.43,568.194 479.097,569.527 479.5,571C 477.982,572.351 476.649,573.851 475.5,575.5 Z"/></g>
<g><path style="opacity:1" fill="#b85951" d="M 490.5,587.5 C 490.5,587.167 490.5,586.833 490.5,586.5C 490.34,584.801 490.506,583.134 491,581.5C 495.686,571.958 502.853,565.625 512.5,562.5C 511.846,564.115 511.346,565.782 511,567.5C 506.394,573.942 501.228,579.942 495.5,585.5C 493.805,586.174 492.138,586.841 490.5,587.5 Z"/></g>
<g><path style="opacity:1" fill="#c36e63" d="M 484.5,580.5 C 485.461,582.265 485.795,584.265 485.5,586.5C 482.199,586.136 479.199,584.969 476.5,583C 465.322,583.283 455.655,587.283 447.5,595C 454.346,597.245 461.346,597.911 468.5,597C 474.412,594.932 480.412,593.099 486.5,591.5C 486.5,590.5 486.5,589.5 486.5,588.5C 487.793,590.808 489.126,593.142 490.5,595.5C 489.406,594.418 488.073,593.752 486.5,593.5C 478.614,597.929 470.114,599.929 461,599.5C 454.719,599.92 448.719,598.92 443,596.5C 442.251,595.365 442.417,594.365 443.5,593.5C 450.479,589.028 457.813,585.195 465.5,582C 471.651,581.034 477.651,581.534 483.5,583.5C 484.386,582.675 484.719,581.675 484.5,580.5 Z"/></g>
<g><path style="opacity:1" fill="#b75850" d="M 485.5,586.5 C 486.338,586.842 486.672,587.508 486.5,588.5C 486.5,589.5 486.5,590.5 486.5,591.5C 480.412,593.099 474.412,594.932 468.5,597C 461.346,597.911 454.346,597.245 447.5,595C 455.655,587.283 465.322,583.283 476.5,583C 479.199,584.969 482.199,586.136 485.5,586.5 Z"/></g>
<g><path style="opacity:1" fill="#c36e62" d="M 524.5,585.5 C 523.419,587.764 522.085,589.931 520.5,592C 515.754,594.416 510.754,596.083 505.5,597C 501.226,600.057 499.56,604.223 500.5,609.5C 499.508,607.544 498.508,605.544 497.5,603.5C 499.23,599.932 501.897,597.098 505.5,595C 512.521,592.85 518.854,589.683 524.5,585.5 Z"/></g>
<g><path style="opacity:1" fill="#b75850" d="M 500.5,609.5 C 499.56,604.223 501.226,600.057 505.5,597C 510.754,596.083 515.754,594.416 520.5,592C 522.085,589.931 523.419,587.764 524.5,585.5C 525.985,584.065 527.318,584.232 528.5,586C 526.42,589.237 524.92,592.737 524,596.5C 520.421,600.75 516.254,604.25 511.5,607C 508.166,609.075 504.499,609.909 500.5,609.5 Z"/></g>
<g><path style="opacity:1" fill="#b85a54" d="M 546.5,601.5 C 547.28,608.738 548.947,615.738 551.5,622.5C 550.803,622.376 549.97,622.376 549,622.5C 547.75,626.607 545.583,630.107 542.5,633C 537.637,635.598 532.637,637.931 527.5,640C 525.667,641.167 524.167,642.667 523,644.5C 522.329,643.748 521.496,643.414 520.5,643.5C 518.07,640.408 516.07,637.075 514.5,633.5C 514.5,632.5 514.5,631.5 514.5,630.5C 519.43,630.251 523.097,627.917 525.5,623.5C 529.036,620.796 532.702,618.296 536.5,616C 540.084,611.251 542.917,606.084 545,600.5C 545.383,601.056 545.883,601.389 546.5,601.5 Z"/></g>
<g><path style="opacity:1" fill="#c26d62" d="M 504.5,616.5 C 503.021,614.322 501.688,611.988 500.5,609.5C 504.499,609.909 508.166,609.075 511.5,607C 516.254,604.25 520.421,600.75 524,596.5C 524.92,592.737 526.42,589.237 528.5,586C 527.318,584.232 525.985,584.065 524.5,585.5C 525.329,581.514 526.163,577.514 527,573.5C 528,572.167 529,572.167 530,573.5C 531.356,581.564 530.356,589.231 527,596.5C 522.322,600.569 517.822,604.736 513.5,609C 510.954,610.44 508.287,611.606 505.5,612.5C 504.571,613.689 504.238,615.022 504.5,616.5 Z"/></g>
<g><path style="opacity:1" fill="#f4f3df" d="M 400.5,380.5 C 400.333,513.167 400.5,645.834 401,778.5C 401.556,776.405 402.056,776.238 402.5,778C 402.297,780.258 401.964,782.758 401.5,785.5C 400.698,784.048 400.198,782.382 400,780.5C 399.167,646.999 399.334,513.666 400.5,380.5 Z"/></g>
<g><path style="opacity:1" fill="#c47064" d="M 545.5,595.5 C 546.461,597.265 546.795,599.265 546.5,601.5C 545.883,601.389 545.383,601.056 545,600.5C 542.917,606.084 540.084,611.251 536.5,616C 532.702,618.296 529.036,620.796 525.5,623.5C 523.097,627.917 519.43,630.251 514.5,630.5C 514.5,631.5 514.5,632.5 514.5,633.5C 512.245,629.549 509.912,625.549 507.5,621.5C 508.735,621.721 509.735,622.388 510.5,623.5C 511.723,620.053 513.223,616.72 515,613.5C 523.125,604.021 533.292,598.021 545.5,595.5 Z"/></g>
<g><path style="opacity:1" fill="#b75850" d="M 539.5,599.5 C 540.586,599.62 541.253,600.287 541.5,601.5C 538.682,610.987 532.682,617.654 523.5,621.5C 521.52,625.819 518.187,628.152 513.5,628.5C 513.724,623.603 514.891,618.936 517,614.5C 523.644,607.988 531.144,602.988 539.5,599.5 Z"/></g>
<g><path style="opacity:1" fill="#e6c6b7" d="M 254.5,598.5 C 255.557,606.319 256.224,614.319 256.5,622.5C 255.698,621.048 255.198,619.382 255,617.5C 254.5,611.175 254.334,604.842 254.5,598.5 Z"/></g>
<g><path style="opacity:1" fill="#d6ac94" d="M 481.5,562.5 C 483.293,566.847 484.959,571.18 486.5,575.5C 486.433,576.959 486.766,578.292 487.5,579.5C 488.088,582.063 489.088,584.396 490.5,586.5C 490.5,586.833 490.5,587.167 490.5,587.5C 490.721,590.067 491.388,592.401 492.5,594.5C 493.971,597.552 495.638,600.552 497.5,603.5C 498.508,605.544 499.508,607.544 500.5,609.5C 501.688,611.988 503.021,614.322 504.5,616.5C 505.075,618.411 506.075,620.078 507.5,621.5C 509.912,625.549 512.245,629.549 514.5,633.5C 516.07,637.075 518.07,640.408 520.5,643.5C 521.975,646.041 523.641,648.374 525.5,650.5C 527.29,652.272 528.623,654.272 529.5,656.5C 531.164,659.159 532.83,661.825 534.5,664.5C 533.542,664.047 532.708,663.381 532,662.5C 531.536,663.094 531.369,663.761 531.5,664.5C 530.194,662.527 528.527,660.861 526.5,659.5C 525.532,656.9 524.199,654.566 522.5,652.5C 522.5,651.833 522.167,651.5 521.5,651.5C 521.25,649.326 520.25,647.659 518.5,646.5C 516.668,642.164 514.335,638.164 511.5,634.5C 507.258,625.679 502.258,617.345 496.5,609.5C 495.679,605.873 494.346,602.54 492.5,599.5C 491.4,598.395 490.733,597.062 490.5,595.5C 489.126,593.142 487.793,590.808 486.5,588.5C 486.672,587.508 486.338,586.842 485.5,586.5C 485.795,584.265 485.461,582.265 484.5,580.5C 484.5,580.167 484.5,579.833 484.5,579.5C 483.218,575.727 481.718,572.06 480,568.5C 479.333,566.167 479.333,563.833 480,561.5C 480.383,562.056 480.883,562.389 481.5,562.5 Z"/></g>
<g><path style="opacity:1" fill="#b85a52" d="M 552.5,625.5 C 557.1,635.692 563.433,644.692 571.5,652.5C 569.441,654.115 567.941,656.782 567,660.5C 562.342,669.774 554.842,674.774 544.5,675.5C 543.489,673.598 543.322,671.598 544,669.5C 548.757,666.538 553.59,663.705 558.5,661C 561.407,657.849 564.074,654.516 566.5,651C 565.833,650.333 565.167,650.333 564.5,651C 561.462,653.703 558.795,656.703 556.5,660C 553.185,662.414 549.518,664.081 545.5,665C 543.641,666.558 542.141,668.391 541,670.5C 540.329,669.748 539.496,669.414 538.5,669.5C 537.876,667.246 536.543,665.579 534.5,664.5C 532.83,661.825 531.164,659.159 529.5,656.5C 529.414,655.504 529.748,654.671 530.5,654C 541.543,652.755 549.377,647.255 554,637.5C 554.667,635.5 554.667,633.5 554,631.5C 549.693,645.731 540.193,652.064 525.5,650.5C 525.192,648.076 525.526,645.743 526.5,643.5C 534.263,640.101 541.429,635.768 548,630.5C 548.11,627.354 549.443,626.354 552,627.5C 552.464,626.906 552.631,626.239 552.5,625.5 Z"/></g>
<g><path style="opacity:1" fill="#ddaea1" d="M 257.5,629.5 C 258.768,631.905 259.435,634.572 259.5,637.5C 257.96,635.162 257.294,632.495 257.5,629.5 Z"/></g>
<g><path style="opacity:1" fill="#c26d62" d="M 492.5,599.5 C 494.346,602.54 495.679,605.873 496.5,609.5C 502.258,617.345 507.258,625.679 511.5,634.5C 505.173,638.395 498.34,639.395 491,637.5C 481.576,639.274 472.076,639.774 462.5,639C 462.043,638.586 461.709,638.086 461.5,637.5C 469.396,634.757 476.396,630.59 482.5,625C 472.199,625.926 462.866,623.426 454.5,617.5C 452.423,616.012 451.423,614.012 451.5,611.5C 458.819,612.355 466.152,612.521 473.5,612C 480.106,609.189 486.773,606.689 493.5,604.5C 492.691,602.929 492.357,601.262 492.5,599.5 Z"/></g>
<g><path style="opacity:1" fill="#b75950" d="M 487.5,625.5 C 495.61,624.714 502.61,627.048 508.5,632.5C 506.869,634.297 504.869,635.464 502.5,636C 498.151,636.536 493.818,636.369 489.5,635.5C 483.107,636.39 476.774,637.224 470.5,638C 469.664,636.757 469.997,635.59 471.5,634.5C 476.636,630.938 481.969,627.938 487.5,625.5 Z"/></g>
<g><path style="opacity:1" fill="#b75950" d="M 496.5,609.5 C 496.739,611.467 496.406,613.301 495.5,615C 482.566,624.787 469.566,624.953 456.5,615.5C 462.15,615.361 467.817,615.027 473.5,614.5C 477.87,612.753 482.203,610.92 486.5,609C 489.924,608.253 493.257,608.42 496.5,609.5 Z"/></g>
<g><path style="opacity:1" fill="#c37064" d="M 551.5,622.5 C 552.404,623.209 552.737,624.209 552.5,625.5C 552.631,626.239 552.464,626.906 552,627.5C 549.443,626.354 548.11,627.354 548,630.5C 541.429,635.768 534.263,640.101 526.5,643.5C 525.526,645.743 525.192,648.076 525.5,650.5C 523.641,648.374 521.975,646.041 520.5,643.5C 521.496,643.414 522.329,643.748 523,644.5C 524.167,642.667 525.667,641.167 527.5,640C 532.637,637.931 537.637,635.598 542.5,633C 545.583,630.107 547.75,626.607 549,622.5C 549.97,622.376 550.803,622.376 551.5,622.5 Z"/></g>
<g><path style="opacity:1" fill="#c36f63" d="M 529.5,656.5 C 528.623,654.272 527.29,652.272 525.5,650.5C 540.193,652.064 549.693,645.731 554,631.5C 554.667,633.5 554.667,635.5 554,637.5C 549.377,647.255 541.543,652.755 530.5,654C 529.748,654.671 529.414,655.504 529.5,656.5 Z"/></g>
<g><path style="opacity:1" fill="#dfb6a7" d="M 866.5,638.5 C 866.662,640.527 866.495,642.527 866,644.5C 865.617,645.056 865.117,645.389 864.5,645.5C 864.41,642.848 865.076,640.515 866.5,638.5 Z"/></g>
<g><path style="opacity:1" fill="#c37568" d="M 576.5,650.5 C 573.745,648.99 571.412,646.99 569.5,644.5C 572.376,643.197 575.376,642.697 578.5,643C 577.386,644.57 576.053,645.903 574.5,647C 575.823,647.816 576.489,648.983 576.5,650.5 Z"/></g>
<g><path style="opacity:1" fill="#d9a394" d="M 259.5,640.5 C 260.924,642.515 261.59,644.848 261.5,647.5C 260.076,645.485 259.41,643.152 259.5,640.5 Z"/></g>
<g><path style="opacity:1" fill="#d89e90" d="M 880.5,633.5 C 880.221,639.105 879.221,644.438 877.5,649.5C 877.053,643.772 878.053,638.438 880.5,633.5 Z"/></g>
<g><path style="opacity:1" fill="#b6574f" d="M 521.5,651.5 C 522.167,651.5 522.5,651.833 522.5,652.5C 522.739,654.467 522.406,656.301 521.5,658C 517.224,659.486 512.891,660.819 508.5,662C 503.446,665.67 498.446,669.337 493.5,673C 488.796,673.648 484.129,673.481 479.5,672.5C 479.351,671.448 479.517,670.448 480,669.5C 484.07,666.434 487.403,662.767 490,658.5C 499.114,650.575 509.614,648.242 521.5,651.5 Z"/></g>
<g><path style="opacity:1" fill="#d59386" d="M 247.5,649.5 C 248.913,652.219 249.58,655.219 249.5,658.5C 248.087,655.781 247.42,652.781 247.5,649.5 Z"/></g>
<g><path style="opacity:1" fill="#c36f63" d="M 544.5,675.5 C 543.761,675.631 543.094,675.464 542.5,675C 541.588,672.795 540.255,670.962 538.5,669.5C 539.496,669.414 540.329,669.748 541,670.5C 542.141,668.391 543.641,666.558 545.5,665C 549.518,664.081 553.185,662.414 556.5,660C 558.795,656.703 561.462,653.703 564.5,651C 565.167,650.333 565.833,650.333 566.5,651C 564.074,654.516 561.407,657.849 558.5,661C 553.59,663.705 548.757,666.538 544,669.5C 543.322,671.598 543.489,673.598 544.5,675.5 Z"/></g>
<g><path style="opacity:1" fill="#d49589" d="M 876.5,655.5 C 876.58,658.781 875.913,661.781 874.5,664.5C 874.42,661.219 875.087,658.219 876.5,655.5 Z"/></g>
<g><path style="opacity:1" fill="#e1bbac" d="M 249.5,658.5 C 250.117,658.611 250.617,658.944 251,659.5C 253.87,670.606 257.036,681.606 260.5,692.5C 255.66,681.645 251.994,670.312 249.5,658.5 Z"/></g>
<g><path style="opacity:1" fill="#deb3a3" d="M 263.5,658.5 C 265.074,660.102 265.741,662.102 265.5,664.5C 263.926,662.898 263.259,660.898 263.5,658.5 Z"/></g>
<g><path style="opacity:1" fill="#c26e62" d="M 518.5,646.5 C 520.25,647.659 521.25,649.326 521.5,651.5C 509.614,648.242 499.114,650.575 490,658.5C 487.403,662.767 484.07,666.434 480,669.5C 479.517,670.448 479.351,671.448 479.5,672.5C 484.129,673.481 488.796,673.648 493.5,673C 498.446,669.337 503.446,665.67 508.5,662C 512.891,660.819 517.224,659.486 521.5,658C 522.406,656.301 522.739,654.467 522.5,652.5C 524.199,654.566 525.532,656.9 526.5,659.5C 524.088,658.021 522.088,658.521 520.5,661C 510.953,663.845 502.286,668.512 494.5,675C 488.15,677.006 482.15,676.173 476.5,672.5C 475.674,671.549 475.508,670.549 476,669.5C 478.805,668.021 481.305,666.188 483.5,664C 491.419,650.79 502.919,645.623 518,648.5C 518.464,647.906 518.631,647.239 518.5,646.5 Z"/></g>
<g><path style="opacity:1" fill="#d9a697" d="M 859.5,665.5 C 859.59,668.152 858.924,670.485 857.5,672.5C 857.41,669.848 858.076,667.515 859.5,665.5 Z"/></g>
<g><path style="opacity:1" fill="#c36f63" d="M 571.5,652.5 C 572.878,653.545 573.878,654.878 574.5,656.5C 573.153,655.829 571.986,655.829 571,656.5C 567.004,668.282 558.837,675.615 546.5,678.5C 547.127,679.417 547.461,680.417 547.5,681.5C 545.025,680.313 544.025,678.313 544.5,675.5C 554.842,674.774 562.342,669.774 567,660.5C 567.941,656.782 569.441,654.115 571.5,652.5 Z"/></g>
<g><path style="opacity:1" fill="#c26c61" d="M 534.5,670.5 C 537.08,672.089 538.413,674.422 538.5,677.5C 540.984,679.8 542.984,682.467 544.5,685.5C 543.518,684.859 542.518,684.193 541.5,683.5C 527.625,695.568 511.625,699.901 493.5,696.5C 501.154,689.274 509.487,683.108 518.5,678C 524.247,676.273 529.913,675.44 535.5,675.5C 535.371,673.784 535.038,672.117 534.5,670.5 Z"/></g>
<g><path style="opacity:1" fill="#b6574f" d="M 538.5,677.5 C 538.414,678.496 538.748,679.329 539.5,680C 528.657,692.469 514.99,697.469 498.5,695C 506.688,686.812 516.355,681.145 527.5,678C 531.152,677.501 534.818,677.335 538.5,677.5 Z"/></g>
<g><path style="opacity:1" fill="#dabba2" d="M 534.5,664.5 C 536.543,665.579 537.876,667.246 538.5,669.5C 540.255,670.962 541.588,672.795 542.5,675C 543.094,675.464 543.761,675.631 544.5,675.5C 544.025,678.313 545.025,680.313 547.5,681.5C 556.657,694.471 565.824,707.471 575,720.5C 577.709,723.378 580.542,726.044 583.5,728.5C 581.102,729.724 578.769,729.558 576.5,728C 566.061,716.91 557.227,704.743 550,691.5C 548.383,689.237 546.55,687.237 544.5,685.5C 542.984,682.467 540.984,679.8 538.5,677.5C 538.413,674.422 537.08,672.089 534.5,670.5C 533.5,668.5 532.5,666.5 531.5,664.5C 531.369,663.761 531.536,663.094 532,662.5C 532.708,663.381 533.542,664.047 534.5,664.5 Z"/></g>
<g><path style="opacity:1" fill="#ddb0a0" d="M 266.5,708.5 C 268.771,710.612 270.104,713.279 270.5,716.5C 268.613,714.211 267.279,711.545 266.5,708.5 Z"/></g>
<g><path style="opacity:1" fill="#daa495" d="M 270.5,716.5 C 272.065,718.509 273.065,720.843 273.5,723.5C 271.552,721.68 270.552,719.346 270.5,716.5 Z"/></g>
<g><path style="opacity:1" fill="#d59589" d="M 850.5,726.5 C 849.721,729.545 848.387,732.211 846.5,734.5C 846.896,731.279 848.229,728.612 850.5,726.5 Z"/></g>
<g><path style="opacity:1" fill="#b85a54" d="M 545.5,746.5 C 549.607,745.85 553.107,746.85 556,749.5C 561.838,762.683 558.005,772.183 544.5,778C 530.169,780.668 524.003,774.834 526,760.5C 530.757,753.222 537.257,748.556 545.5,746.5 Z"/></g>
<g><path style="opacity:1" fill="#e0b6a7" d="M 337.5,792.5 C 340.243,794.239 342.243,796.573 343.5,799.5C 340.757,797.761 338.757,795.427 337.5,792.5 Z"/></g>
<g><path style="opacity:1" fill="#e2bcab" d="M 334.5,808.5 C 338.771,811.101 342.437,814.434 345.5,818.5C 341.229,815.899 337.563,812.566 334.5,808.5 Z"/></g>
<g><path style="opacity:1" fill="#e6c7b7" d="M 678.5,867.5 C 678.389,868.117 678.056,868.617 677.5,869C 673.553,870.484 669.553,871.65 665.5,872.5C 669.522,870.266 673.856,868.599 678.5,867.5 Z"/></g>
<g><path style="opacity:1" fill="#dcaa9a" d="M 458.5,871.5 C 461.397,872.129 464.064,873.129 466.5,874.5C 463.284,874.655 460.617,873.655 458.5,871.5 Z"/></g>
<g><path style="opacity:1" fill="#e0b4a5" d="M 658.5,874.5 C 655.992,876.554 652.992,877.554 649.5,877.5C 652.254,876.054 655.254,875.054 658.5,874.5 Z"/></g>
<g><path style="opacity:0.839" fill="#e7c9b8" d="M 631.5,881.5 C 627.645,884.035 623.312,885.035 618.5,884.5C 622.681,883.34 627.015,882.34 631.5,881.5 Z"/></g>
<g><path style="opacity:1" fill="#ddae9f" d="M 502.5,883.5 C 506.49,883.999 510.49,884.499 514.5,885C 515.416,885.278 516.082,885.778 516.5,886.5C 511.55,886.23 506.883,885.23 502.5,883.5 Z"/></g>
<g><path style="opacity:1" fill="#e3c0b1" d="M 530.5,887.5 C 534.764,887.344 538.764,888.011 542.5,889.5C 538.21,889.802 534.21,889.136 530.5,887.5 Z"/></g>
<g><path style="opacity:1" fill="#deb1a1" d="M 594.5,887.5 C 589.384,888.806 584.051,889.473 578.5,889.5C 583.583,887.922 588.916,887.255 594.5,887.5 Z"/></g>
</svg>
